<?xml version="1.0" encoding="utf-8"?>
<!-- Generator: Adobe Illustrator 24.2.1, SVG Export Plug-In . SVG Version: 6.00 Build 0)  -->
<svg version="1.1" id="Capa_1" xmlns="http://www.w3.org/2000/svg" xmlns:xlink="http://www.w3.org/1999/xlink" x="0px" y="0px"
	 viewBox="0 0 89.74 124.99" style="enable-background:new 0 0 89.74 124.99;" xml:space="preserve">
<style type="text/css">
	.st0{fill:#E32F89;}
	.st1{fill:#BC0E73;}
	.st2{fill:#569747;}
	.st3{fill:#6EB63D;}
</style>
<g>
	<path class="st0" d="M12.28,82.51c0.36,0.3,0.74,0.56,1.13,0.8c0.26-0.4,0.54-0.79,0.85-1.16c1.76-2.11,4.17-3.49,6.84-3.98
		c0-1.1,0.16-2.17,0.46-3.21c-1.09-0.45-2.12-1.06-3.05-1.84c-0.34-0.28-0.65-0.58-0.95-0.89c-0.75,0.24-1.53,0.4-2.33,0.48
		c-1.86,0.19-3.7-0.07-5.39-0.73C8.25,75.55,9.13,79.88,12.28,82.51z"/>
	<path class="st0" d="M74.99,90.46c0.97,1.54,1.57,3.29,1.73,5.15c0.04,0.49,0.05,0.97,0.03,1.45c0.26,0.47,0.48,0.95,0.68,1.44
		c1.36-0.53,2.61-1.4,3.62-2.6c1.86-2.22,2.45-5.08,1.86-7.71c-1.67,1.25-3.65,2.04-5.77,2.25C76.41,90.52,75.69,90.51,74.99,90.46z
		"/>
	<path class="st0" d="M81.79,72.05c-1.84,1.7-4.16,2.76-6.69,3.02c-1.43,0.15-2.84,0.02-4.18-0.34c-0.01,0.01-0.01,0.02-0.02,0.03
		c0.98,0.9,1.81,1.96,2.45,3.17c1.44,2.76,1.72,5.91,0.79,8.88c-0.08,0.26-0.17,0.51-0.27,0.76c0.98,0.23,1.99,0.31,2.99,0.21
		c2.25-0.23,4.41-1.3,5.97-3.17C85.99,80.83,85.51,75.24,81.79,72.05z"/>
	<path class="st0" d="M73.44,108.44c1.58-1.9,2.25-4.25,2.05-6.53c-0.4,0.78-0.87,1.52-1.44,2.2c-1.49,1.78-3.44,3.05-5.62,3.69
		c0.11,0.48,0.19,0.97,0.24,1.47c0.06,0.71,0.06,1.42-0.01,2.12C70.47,110.97,72.16,109.98,73.44,108.44z"/>
	<path class="st0" d="M44.48,117.36c0.96-0.1,1.89-0.36,2.78-0.76c-0.58-0.9-1.03-1.87-1.34-2.9c-2.07-0.11-4.05-0.76-5.79-1.91
		c-1.21,0.8-2.56,1.37-3.99,1.67c0.46,0.68,1.01,1.3,1.67,1.85C39.75,116.93,42.16,117.6,44.48,117.36z"/>
	<path class="st0" d="M34.61,111.01c1.18-0.12,2.33-0.48,3.39-1.05c-1.73-1.88-2.8-4.25-3.03-6.84c-0.05-0.53-0.05-1.06-0.02-1.58
		c-1.96-0.22-3.82-0.95-5.44-2.12c-1.42,0.91-3.02,1.5-4.73,1.73c-0.3,2.87,0.79,5.83,3.17,7.82
		C29.87,110.58,32.28,111.25,34.61,111.01z"/>
	<path class="st0" d="M24.11,98.54c1.16-0.12,2.29-0.46,3.33-1.02c-2.53-2.96-3.36-6.95-2.38-10.6c-1.85-1.62-3.1-3.74-3.65-6.1
		c-1.93,0.39-3.74,1.41-5.1,3.04c-3.18,3.8-2.67,9.46,1.13,12.64C19.37,98.12,21.78,98.78,24.11,98.54z"/>
	<path class="st0" d="M78.35,55.68c-0.09,0.12-0.17,0.24-0.27,0.36c-1.96,2.35-4.72,3.81-7.76,4.12c-0.45,0.05-0.89,0.06-1.34,0.05
		c0.73,0.69,1.38,1.46,1.92,2.33c1.63,2.65,2.13,5.78,1.41,8.8c-0.07,0.31-0.17,0.61-0.26,0.91c0.91,0.19,1.85,0.25,2.77,0.15
		c2.25-0.23,4.41-1.3,5.97-3.17c3.18-3.8,2.67-9.46-1.13-12.64C79.25,56.24,78.81,55.94,78.35,55.68z"/>
	<path class="st1" d="M44.05,40.86c-1.92,0.2-3.79,1.05-5.23,2.56c0,0,0,0,0,0c0.08,0.07,0.16,0.13,0.24,0.21
		c2.62,2.51,3.73,6.01,3.33,9.36c1.65-0.04,3.27,0.26,4.77,0.88c0.42-1.54,1.16-2.98,2.21-4.24c0.06-0.07,0.13-0.14,0.19-0.21
		c-0.07-0.38-0.13-0.76-0.17-1.15c-0.17-1.9,0.15-3.78,0.91-5.48C48.51,41.28,46.24,40.63,44.05,40.86z"/>
	<path class="st1" d="M27.22,48.78c1.54,1.29,2.64,2.9,3.3,4.66c1.05,0.44,2.03,1.04,2.93,1.79c0.39,0.33,0.75,0.68,1.08,1.05
		c0.21-0.2,0.42-0.41,0.64-0.6c1.31-1.1,2.82-1.88,4.45-2.32c0.57-2.75-0.23-5.72-2.41-7.81c-1.86-1.78-4.31-2.54-6.68-2.29
		c-1.92,0.2-3.79,1.05-5.23,2.56c-0.36,0.38-0.68,0.79-0.95,1.21C25.37,47.46,26.34,48.05,27.22,48.78z"/>
	<path class="st1" d="M19.11,48.88c-0.97,0.1-1.93,0.37-2.82,0.8c1.91,0.37,3.7,1.22,5.24,2.5c0.34,0.28,0.65,0.58,0.95,0.89
		c0.75-0.24,1.53-0.4,2.33-0.48l0,0c0.77-0.08,1.53-0.08,2.28-0.01c-0.43-0.63-0.95-1.22-1.57-1.74
		C23.65,49.29,21.34,48.65,19.11,48.88z"/>
	<path class="st0" d="M14.96,70.04c0.3-0.03,0.59-0.08,0.88-0.14c-0.81-1.43-1.32-3.01-1.47-4.7c-0.28-3.1,0.67-6.12,2.67-8.51
		c0.81-0.97,1.76-1.78,2.81-2.43c-0.02-0.01-0.03-0.03-0.05-0.04c-1.93-1.62-4.34-2.28-6.67-2.04c-2.25,0.23-4.41,1.3-5.97,3.17
		C3.98,59.16,4.49,64.82,8.29,68C10.23,69.62,12.64,70.28,14.96,70.04z"/>
	<path class="st1" d="M53.99,41.87c-1.33,1.59-1.97,3.52-1.96,5.44c1.45-0.91,3.09-1.49,4.84-1.67l0,0
		c0.34-0.03,0.67-0.05,1.01-0.05c0.43-1.63,1.2-3.17,2.32-4.5c0.64-0.77,1.38-1.44,2.18-2.01c-0.92-0.21-1.86-0.28-2.78-0.19
		C57.49,39.11,55.46,40.12,53.99,41.87z"/>
	<path class="st0" d="M62.26,42.81c-0.78,0.93-1.34,1.98-1.68,3.07c1.7,0.39,3.3,1.17,4.68,2.33c2.31,1.93,3.73,4.65,4,7.65
		c0.05,0.56,0.05,1.12,0.01,1.68c0.26,0,0.53-0.02,0.79-0.04c2.25-0.23,4.41-1.3,5.97-3.17c3.18-3.8,2.67-9.46-1.13-12.64
		c-1.93-1.62-4.34-2.28-6.67-2.04C65.98,39.86,63.82,40.94,62.26,42.81z"/>
	<path class="st0" d="M65.79,108.26c-2.96,0.18-5.82-0.75-8.12-2.65c-0.45,1.43-1.18,2.77-2.17,3.95c-1.75,2.1-4.15,3.48-6.81,3.98
		c0.53,1.38,1.4,2.65,2.62,3.67c1.93,1.62,4.34,2.28,6.67,2.04c2.25-0.23,4.41-1.3,5.97-3.17
		C65.84,113.82,66.42,110.91,65.79,108.26z"/>
	<path class="st0" d="M64.21,94.92c-0.84,0.09-1.69,0.07-2.52-0.02c-0.04,0.08-0.07,0.16-0.12,0.23c-0.92,1.63-2.22,2.99-3.74,4
		c0.16,0.63,0.29,1.27,0.35,1.92c0.04,0.44,0.05,0.88,0.04,1.32c0.34,0.41,0.72,0.81,1.15,1.17c1.93,1.62,4.34,2.28,6.67,2.04
		c2.25-0.23,4.41-1.3,5.97-3.17c2.85-3.41,2.73-8.3-0.06-11.57C70.03,93.1,67.28,94.61,64.21,94.92z"/>
	<path class="st0" d="M55.37,100.35c-0.88,0.32-1.81,0.53-2.76,0.63c-2.41,0.25-4.8-0.26-6.91-1.45c-0.53-0.3-1.02-0.65-1.49-1.02
		c-1.81,1.68-4.1,2.74-6.58,3.03c-0.17,2.75,0.92,5.53,3.19,7.43c1.93,1.62,4.34,2.28,6.67,2.04c2.25-0.23,4.41-1.3,5.97-3.17
		C55.26,105.68,55.87,102.92,55.37,100.35z"/>
	<path class="st0" d="M58.96,94.23c-2.7-1-4.92-2.93-6.26-5.51c-0.27-0.52-0.49-1.05-0.68-1.6c-0.74,0.23-1.51,0.4-2.3,0.48
		c-0.68,0.07-1.36,0.06-2.04,0.01c0.61,2.99,0.06,6.2-1.74,8.87c0.33,0.26,0.68,0.5,1.06,0.71c1.68,0.95,3.54,1.3,5.32,1.12
		C54.97,98.05,57.44,96.6,58.96,94.23z"/>
	<path class="st0" d="M43.18,95.72c2.1-2.51,2.58-5.82,1.58-8.7c-1.05-0.36-2.05-0.88-2.95-1.52c-0.04,0.05-0.08,0.11-0.12,0.16
		c-1.96,2.35-4.72,3.81-7.76,4.12c-2.28,0.23-4.51-0.2-6.49-1.22c-0.48,3.02,0.58,6.2,3.1,8.3c1.93,1.62,4.34,2.28,6.67,2.04
		C39.45,98.67,41.62,97.59,43.18,95.72z"/>
	<path class="st0" d="M62.18,80.24c-0.93,0.09-1.85,0.05-2.76-0.08c-0.91,2.39-2.56,4.42-4.77,5.78c-0.06,0.03-0.11,0.06-0.17,0.09
		c0.86,2.7,2.96,4.95,5.87,5.86c1.2,0.38,2.41,0.49,3.59,0.37c3.46-0.35,6.55-2.72,7.66-6.25c1.05-3.36,0.02-6.86-2.35-9.15
		c-0.64,0.64-1.35,1.22-2.14,1.71C65.58,79.5,63.93,80.06,62.18,80.24z"/>
	<path class="st0" d="M26.99,85.07c1.93,1.62,4.34,2.28,6.67,2.04c2.25-0.23,4.41-1.3,5.97-3.17c0.06-0.08,0.12-0.16,0.18-0.24
		c-0.44-0.49-0.84-1.01-1.19-1.58c-1.37-2.23-1.93-4.8-1.65-7.36c-1.05-0.59-2-1.36-2.84-2.26c-1.88,1.84-4.31,2.99-6.96,3.26
		c-1.02,0.1-2.04,0.06-3.02-0.09C23.17,78.99,24.17,82.71,26.99,85.07z"/>
	<path class="st0" d="M49.46,84.95c1.3-0.13,2.6-0.55,3.79-1.29c1.66-1.02,2.87-2.51,3.57-4.18c-2.34-0.91-4.39-2.53-5.74-4.73
		c-0.28-0.45-0.51-0.92-0.72-1.39c-0.06,0.06-0.12,0.12-0.19,0.17c-1.8,1.51-3.97,2.43-6.3,2.67c-1.46,0.15-2.91,0.02-4.28-0.36
		c-0.03,1.67,0.39,3.36,1.32,4.88C42.76,83.75,46.14,85.29,49.46,84.95z"/>
	<path class="st0" d="M20.22,71.06c1.93,1.62,4.34,2.28,6.67,2.04c2.09-0.21,4.09-1.16,5.62-2.79c-2.1-3.75-1.95-8.35,0.31-11.93
		c-0.33-0.39-0.69-0.76-1.09-1.09c-1.93-1.62-4.34-2.28-6.67-2.04c-2.25,0.23-4.41,1.3-5.97,3.17
		C15.91,62.22,16.42,67.88,20.22,71.06z"/>
	<path class="st0" d="M67.67,62.68c-0.3,0.49-0.62,0.97-1,1.41c-1.9,2.27-4.56,3.69-7.51,3.99c-1.8,0.18-3.56-0.07-5.2-0.7
		c-0.32,1.33-0.86,2.58-1.62,3.7c0.22,0.78,0.54,1.55,0.99,2.27c1.87,3.03,5.24,4.56,8.56,4.22c1.3-0.13,2.6-0.55,3.79-1.29
		c4.22-2.6,5.54-8.13,2.94-12.35C68.35,63.48,68.02,63.07,67.67,62.68z"/>
	<path class="st0" d="M49.58,55.24c0.73,0.54,1.41,1.17,2.01,1.88c1.78,2.12,2.73,4.75,2.72,7.49c1.45,0.69,3.04,0.96,4.58,0.81
		c2.15-0.22,4.23-1.25,5.72-3.04c3.05-3.64,2.56-9.07-1.08-12.11c-1.85-1.55-4.16-2.18-6.39-1.96c-2.15,0.22-4.23,1.25-5.72,3.04
		C50.45,52.51,49.84,53.85,49.58,55.24z"/>
	<path class="st0" d="M35.79,70.38c1.99,2.37,4.93,3.45,7.79,3.16c1.73-0.18,3.42-0.85,4.85-2.05c3.8-3.19,4.29-8.85,1.1-12.64
		c-1.99-2.37-4.93-3.45-7.79-3.16c-1.73,0.18-3.42,0.85-4.85,2.05C33.1,60.92,32.61,66.59,35.79,70.38z"/>
	<path class="st2" d="M22.17,23.5c7.16,3.21,11.06,10.57,12.12,12.83c0.8-2.48,2.17-9.24-4.31-14.13
		c-5.86-4.43-14.43-5.38-14.43-5.38s-0.46,12.12,4.64,16.83c4.15,3.84,10.67,3.85,12.93,3.72C30.54,29.9,22.17,23.5,22.17,23.5z"/>
	<path class="st3" d="M55.28,3.59c0,0-10.48,4.12-16.36,11.7c-6.8,8.75-2.09,17.14-0.39,19.63c0.39-3.81,2.04-13.9,8.9-20.43
		c0,0-6.94,10.84-7.4,21c2.82-0.58,11.16-2.78,15.13-9.11C59.98,18.71,55.28,3.59,55.28,3.59z"/>
</g>
</svg>
