<?xml version="1.0" encoding="utf-8"?>
<!-- Generator: Adobe Illustrator 24.2.1, SVG Export Plug-In . SVG Version: 6.00 Build 0)  -->
<svg version="1.1" id="Capa_1" xmlns="http://www.w3.org/2000/svg" xmlns:xlink="http://www.w3.org/1999/xlink" x="0px" y="0px"
	 viewBox="0 0 454.18 124.99" style="enable-background:new 0 0 454.18 124.99;" xml:space="preserve">
<style type="text/css">
	.st0{fill:#585857;stroke:#676767;stroke-width:0.4466;stroke-miterlimit:10;}
	.st1{fill:#BC0E73;}
	.st2{fill:#585857;}
	.st3{fill:#E32F89;}
	.st4{fill:#569747;}
	.st5{fill:#6EB63D;}
</style>
<g>
	<g>
		<path class="st0" d="M82.94,32.78h-6.47v-1.42h22.86c6.26,0,11.25,0.86,14.97,2.57c4.49,2.07,6.73,6.17,6.73,12.31
			c0,11.75-7.5,17.63-22.5,17.63h-6.38v23.65h7.35v1.42H76.47v-1.42h6.47V32.78z M107.97,58.65c2.1-2.54,3.15-6.45,3.15-11.74
			c0-5.29-1.12-8.96-3.37-11.03c-2.25-2.07-5.97-3.1-11.16-3.1h-4.43v29.68h5.14C102.31,62.46,105.87,61.19,107.97,58.65z"/>
		<path class="st0" d="M143.84,55.87c5.47,0,9.08,1.23,10.85,3.69c1.77,2.46,2.65,6.74,2.65,12.85v12.2c0,1.88,0.41,2.83,1.24,2.83
			c1.7,0,2.83-2.64,3.38-7.93l1.24,0.14c-0.69,7.12-3.01,10.68-6.96,10.68c-1.15,0-2.03-0.41-2.65-1.24
			c-0.62-0.83-1.01-1.73-1.17-2.72c-0.16-0.99-0.24-2.22-0.24-3.69h-0.41c-0.6,2.44-1.82,4.32-3.65,5.65c-1.84,1.33-4.19,2-7.06,2
			s-5.39-0.77-7.54-2.31c-2.16-1.54-3.24-3.75-3.24-6.65c0-2.16,0.62-3.95,1.86-5.38c2.57-2.94,8.41-4.41,17.5-4.41
			c0.5,0,1.03,0,1.58,0V68.2c0-3.63-0.62-6.36-1.86-8.2c-1.24-1.84-3.39-2.76-6.44-2.76c-3.06,0-5.3,0.62-6.72,1.86
			c-1.42,1.24-2.14,2.53-2.14,3.86c0,0.41,0.2,0.62,0.59,0.62c0.39,0,0.61-0.21,0.65-0.62c0.28-1.19,1.19-1.79,2.76-1.79
			c1.01,0,1.81,0.36,2.41,1.07c0.6,0.71,0.9,1.58,0.9,2.62c0,1.03-0.38,1.91-1.14,2.62c-0.76,0.71-1.75,1.07-2.96,1.07
			c-1.22,0-2.27-0.47-3.17-1.41c-0.9-0.94-1.34-2.1-1.34-3.48c0-2.57,1.08-4.51,3.24-5.82C138.15,56.52,140.77,55.87,143.84,55.87z
			 M151.22,77.43v-4.62c-0.46,0-1.18,0-2.17,0c-0.99,0-2.16,0.07-3.51,0.21c-1.36,0.14-2.75,0.48-4.17,1.03
			c-2.94,1.06-4.41,3.4-4.41,7.03c0,2.21,0.53,3.97,1.58,5.31c1.06,1.33,2.76,2,5.1,2c2.34,0,4.19-1.06,5.55-3.17
			C150.54,83.11,151.22,80.51,151.22,77.43z"/>
		<path class="st0" d="M182.71,58.28v23.43c0,3.86,0.25,6,0.76,6.41c0.28,0.23,0.64,0.34,1.1,0.34c1.15,0,2.26-0.67,3.34-2
			c1.08-1.33,1.96-2.78,2.65-4.34l1.1,0.41c-0.87,2.21-2.04,4.06-3.51,5.55c-1.47,1.49-3.17,2.24-5.1,2.24
			c-2.71,0-4.47-0.82-5.27-2.45c-0.8-1.63-1.21-4.19-1.21-7.68V58.28h-4.89v-1.03h0.48c5.28,0,8.5-3.03,9.65-9.1h0.9v9.1h8.34v1.03
			H182.71z"/>
		<path class="st0" d="M211.24,58.28v23.43c0,3.86,0.25,6,0.76,6.41c0.28,0.23,0.64,0.34,1.1,0.34c1.15,0,2.26-0.67,3.34-2
			c1.08-1.33,1.96-2.78,2.65-4.34l1.1,0.41c-0.87,2.21-2.04,4.06-3.51,5.55c-1.47,1.49-3.17,2.24-5.1,2.24
			c-2.71,0-4.47-0.82-5.27-2.45c-0.8-1.63-1.21-4.19-1.21-7.68V58.28h-4.89v-1.03h0.48c5.28,0,8.5-3.03,9.65-9.1h0.9v9.1h8.34v1.03
			H211.24z"/>
		<path class="st0" d="M243.56,55.87c6.98,0,10.48,2.37,10.48,7.1c0,1.38-0.45,2.54-1.34,3.48c-0.9,0.94-1.95,1.41-3.17,1.41
			c-1.22,0-2.21-0.36-2.96-1.07c-0.76-0.71-1.14-1.58-1.14-2.62c0-1.03,0.3-1.91,0.9-2.62c0.6-0.71,1.4-1.07,2.41-1.07
			c1.56,0,2.48,0.6,2.76,1.79c0.04,0.41,0.26,0.62,0.65,0.62c0.39,0,0.59-0.21,0.59-0.62c0-1.29-0.63-2.45-1.9-3.48
			c-1.26-1.03-3.19-1.55-5.79-1.55c-2.6,0-4.73,0.48-6.41,1.45c-1.68,0.96-2.52,2.31-2.52,4.03c0,1.72,0.67,3.11,2,4.17
			c1.33,1.06,2.94,1.93,4.82,2.62c1.88,0.69,3.78,1.41,5.69,2.17c1.91,0.76,3.53,1.85,4.86,3.27c1.33,1.42,2,3.15,2,5.17
			c0,3.45-1.23,6.01-3.69,7.68c-2.46,1.68-5.5,2.51-9.13,2.51c-3.63,0-6.55-0.64-8.75-1.93c-2.21-1.29-3.31-3.24-3.31-5.86
			c0-1.38,0.45-2.54,1.34-3.48c0.9-0.94,1.95-1.41,3.17-1.41c1.22,0,2.21,0.36,2.96,1.07c0.76,0.71,1.14,1.58,1.14,2.62
			c0,1.03-0.3,1.91-0.9,2.62c-0.6,0.71-1.4,1.07-2.41,1.07c-1.56,0-2.48-0.6-2.76-1.79c-0.05-0.41-0.26-0.62-0.65-0.62
			c-0.39,0-0.59,0.21-0.59,0.62c0,1.38,0.77,2.68,2.31,3.89c1.54,1.22,3.82,1.83,6.86,1.83c6.66,0,9.99-2.16,9.99-6.48
			c0-2.66-2.27-4.82-6.82-6.48c-1.93-0.69-3.84-1.41-5.72-2.17s-3.49-1.85-4.82-3.27c-1.33-1.42-2-3.15-2-5.17
			c0-2.94,1.16-5.26,3.48-6.96C237.51,56.72,240.3,55.87,243.56,55.87z"/>
		<path class="st0" d="M278.22,63.52h0.41c0.83-2.34,2.05-4.2,3.69-5.58c1.63-1.38,3.57-2.07,5.82-2.07c4.13,0,7.2,1.62,9.2,4.86
			c2,3.24,3,7.34,3,12.3s-1.03,9.09-3.1,12.37c-2.07,3.29-5.24,4.93-9.51,4.93c-4.27,0-7.3-1.88-9.1-5.65h-0.41v4.27h-10.68v-1.03
			h4.55V42.43h-4.89v-1.03h1.45c3.58,0,6.78-0.3,9.58-0.9V63.52z M278.08,73.02v2.48c0,3.58,0.69,6.63,2.07,9.13
			c1.38,2.5,3.54,3.75,6.48,3.75c3.17,0,5.17-1.79,6-5.38c0.69-2.89,1.03-5.79,1.03-8.68s-0.08-5.1-0.24-6.62
			c-0.16-1.52-0.46-3.09-0.89-4.72c-0.44-1.63-1.17-2.91-2.21-3.83c-1.04-0.92-2.28-1.38-3.72-1.38s-2.73,0.52-3.86,1.55
			c-1.13,1.03-2.01,2.35-2.65,3.96C278.75,66.57,278.08,69.81,278.08,73.02z"/>
		<path class="st0" d="M329.08,55.87c3.45,0,6.33,0.74,8.65,2.21c2.32,1.47,3.48,3.68,3.48,6.62c0,4.55-2.6,7.35-7.79,8.41
			c-2.62,0.51-5.88,0.76-9.79,0.76h-3.24v2c0,3.72,0.77,6.74,2.31,9.06c1.54,2.32,3.79,3.48,6.75,3.48s5.28-0.87,6.96-2.62
			c1.68-1.75,2.86-4,3.55-6.75l1.24,0.14c-0.74,3.35-2.22,6.05-4.45,8.1s-5.04,3.07-8.44,3.07c-4.78,0-8.41-1.57-10.89-4.72
			s-3.72-7.32-3.72-12.51c0-5.19,1.33-9.36,4-12.51C320.37,57.44,324.16,55.87,329.08,55.87z M320.39,72.61h2.41
			c3.72,0,6.33-0.37,7.82-1.1c1.49-0.73,2.52-1.64,3.07-2.72c0.55-1.08,0.83-2.61,0.83-4.58c0-1.97-0.49-3.66-1.48-5.07
			c-0.99-1.4-2.49-2.1-4.51-2.1c-2.02,0-3.66,0.72-4.93,2.17s-2.11,3.14-2.55,5.06c-0.44,1.93-0.65,4.07-0.65,6.41V72.61z"/>
		<path class="st0" d="M376.97,61.1c0-1.19-0.44-2.18-1.31-2.96c-0.87-0.78-2.04-1.17-3.51-1.17c-1.47,0-2.84,0.59-4.1,1.76
			c-1.26,1.17-2.24,2.7-2.93,4.58c-1.24,3.63-1.86,7.56-1.86,11.78v12.82h5.03v1.03h-15.71v-1.03h4.55V58.28h-4.89v-1.03h1.45
			c3.67,0,6.91-0.3,9.72-0.9v7.17h0.41c1.93-5.1,4.82-7.65,8.68-7.65c1.7,0,3.09,0.54,4.17,1.62c1.08,1.08,1.62,2.41,1.62,4
			s-0.45,2.85-1.34,3.79c-0.9,0.94-1.95,1.41-3.17,1.41c-1.22,0-2.21-0.36-2.96-1.07c-0.76-0.71-1.14-1.58-1.14-2.62
			c0-1.03,0.3-1.91,0.9-2.62c0.6-0.71,1.4-1.07,2.41-1.07c1.56,0,2.48,0.6,2.76,1.79c0.09,0.41,0.32,0.62,0.69,0.62
			S376.97,61.52,376.97,61.1z"/>
		<path class="st0" d="M410.94,61.1c0-1.19-0.44-2.18-1.31-2.96c-0.87-0.78-2.04-1.17-3.51-1.17c-1.47,0-2.84,0.59-4.1,1.76
			c-1.26,1.17-2.24,2.7-2.93,4.58c-1.24,3.63-1.86,7.56-1.86,11.78v12.82h5.03v1.03h-15.71v-1.03h4.55V58.28h-4.89v-1.03h1.45
			c3.67,0,6.91-0.3,9.72-0.9v7.17h0.41c1.93-5.1,4.82-7.65,8.68-7.65c1.7,0,3.09,0.54,4.17,1.62c1.08,1.08,1.62,2.41,1.62,4
			s-0.45,2.85-1.34,3.79c-0.9,0.94-1.95,1.41-3.17,1.41c-1.22,0-2.21-0.36-2.96-1.07c-0.76-0.71-1.14-1.58-1.14-2.62
			c0-1.03,0.3-1.91,0.9-2.62c0.6-0.71,1.4-1.07,2.41-1.07c1.56,0,2.48,0.6,2.76,1.79c0.09,0.41,0.32,0.62,0.69,0.62
			S410.94,61.52,410.94,61.1z"/>
		<path class="st0" d="M436.1,105c-2.3,0-4.13-0.82-5.51-2.45c-1.38-1.63-2.07-3.73-2.07-6.31c0-3.91,2.02-7.33,6.06-10.27
			l-0.07-0.28c-3.13-0.18-5.86-2.32-8.2-6.41c-2.34-4.09-3.51-9.81-3.51-17.16v-3.86h-4.89v-1.03h1.45c3.63,0,6.87-0.3,9.72-0.9v4.2
			c0,6.48,0.77,11.7,2.31,15.68c1.54,3.97,3.76,5.96,6.65,5.96c2.07,0,4.22-1.56,6.48-4.69c2.25-3.12,3.38-6.66,3.38-10.61
			c0-2.25-0.32-4.24-0.96-5.96c-0.64-1.72-1.65-2.86-3.03-3.41c-0.46-0.23-0.99-0.34-1.59-0.34c-0.6,0-0.9,0.2-0.9,0.59
			c0,0.39,0.21,0.61,0.62,0.65c1.24,0.23,1.84,1.01,1.79,2.34c0,2.57-1.2,3.86-3.58,3.86c-1.1,0-2.01-0.39-2.72-1.17
			c-0.71-0.78-1.07-1.8-1.07-3.07c0-1.26,0.51-2.33,1.52-3.2c1.01-0.87,2.23-1.31,3.65-1.31c2.57,0,4.47,1.01,5.69,3.03
			c1.22,2.02,1.83,4.59,1.83,7.72c0,7.4-3.03,13.12-9.1,17.16c-0.09,0.09-0.58,0.41-1.45,0.96c-0.87,0.55-1.41,0.91-1.62,1.07
			c-0.21,0.16-0.7,0.52-1.48,1.07s-1.3,0.96-1.55,1.24s-0.68,0.7-1.28,1.28c-0.6,0.57-1.01,1.07-1.24,1.48
			c-0.23,0.41-0.51,0.92-0.83,1.52c-0.55,1.01-0.83,2.45-0.83,4.31c0,1.86,0.57,3.49,1.72,4.89c1.15,1.4,2.43,2.1,3.86,2.1
			c0.46,0,0.69-0.18,0.69-0.55c0-0.37-0.21-0.6-0.62-0.69c-1.2-0.28-1.79-1.2-1.79-2.76c0-0.96,0.36-1.76,1.07-2.38
			s1.59-0.93,2.62-0.93s1.91,0.38,2.62,1.14c0.71,0.76,1.07,1.73,1.07,2.93c0,1.19-0.48,2.25-1.45,3.17
			C438.58,104.54,437.43,105,436.1,105z"/>
	</g>
	<g>
		<path class="st1" d="M229.67,43.65c0.24-1.61,0.73-2.65,1.47-3.11s1.4-0.63,1.99-0.51c0.59,0.12,1.07,0.47,1.43,1.06
			c0.71,1.13,0.58,2.4-0.38,3.81l-7.45,11.48l-0.96-0.62c1.22-2.12,2.01-3.75,2.35-4.88c0.35-1.14,0.57-1.86,0.68-2.17
			c0.11-0.31,0.21-0.81,0.32-1.5s0.18-1.1,0.21-1.23c0.03-0.13,0.09-0.54,0.19-1.26L229.67,43.65z"/>
	</g>
</g>
<g>
	<path class="st1" d="M165.61,118.82c-0.3,0.64-0.7,1.18-1.18,1.61c-0.95,0.84-2,1.4-3.14,1.66c-0.54,0.13-1.08,0.21-1.64,0.27
		c-0.11,0.02-0.23,0.04-0.38,0.05c-0.14,0-0.27,0.01-0.38,0.03c-0.16,0.02-0.42,0.03-0.78,0.03l-1.23-0.05l-2.76-0.08h-0.81
		c-0.21,0-0.34-0.03-0.38-0.08l0.11-0.05l0.24-0.05c0.16,0,0.36-0.08,0.59-0.24c0.21-0.14,0.32-0.47,0.32-0.99l-0.03-0.32v-9.07
		c0-0.73-0.37-1.1-1.1-1.1c-0.23-0.04-0.36-0.07-0.38-0.11l0.13-0.08l0.21-0.05l0.86,0.03l1.37,0.03h0.3h0.24h0.21h0.16h0.16h0.35
		h0.24c0.11-0.04,0.17-0.05,0.19-0.05l0.27-0.03h0.78c0.64,0,1.21,0.04,1.69,0.11c0.59,0.09,1.16,0.21,1.72,0.35
		c1.16,0.3,2.19,0.94,3.09,1.91c0.89,1,1.34,2.38,1.34,4.13C166.01,117.47,165.88,118.2,165.61,118.82z M163.2,112.81
		c-0.82-0.88-1.76-1.45-2.82-1.72c-1.06-0.25-2-0.38-2.84-0.38h-0.35l-0.13,0.03c-0.91,0-1.37,0.28-1.37,0.83l0.08,9.12
		c0,0.25,0.13,0.53,0.4,0.83c0.3,0.3,0.88,0.46,1.72,0.46h0.35c0.82,0,1.69-0.12,2.6-0.35c0.89-0.23,1.73-0.75,2.5-1.56
		c0.75-0.79,1.13-1.94,1.13-3.46C164.46,114.98,164.04,113.71,163.2,112.81z"/>
	<path class="st1" d="M176.43,121.05c0,0.16-0.04,0.4-0.13,0.72c0,0.38-0.26,0.56-0.78,0.56h-6.17c-0.09,0-0.15-0.02-0.19-0.05
		c0-0.05,0.07-0.1,0.21-0.13c0.13,0,0.28-0.05,0.46-0.16c0.2-0.14,0.29-0.35,0.29-0.62l0.05-10.17c0-0.29-0.12-0.48-0.35-0.59
		l-0.11-0.05c-0.27-0.07-0.45-0.12-0.54-0.13c-0.23-0.07-0.35-0.13-0.35-0.16l0.11-0.08h0.21h6.44l0.16-0.08l0.24-0.05
		c0.05,0,0.1,0.04,0.13,0.13c0,0.04-0.04,0.13-0.11,0.29c0,0.02-0.01,0.04-0.03,0.08l-0.11,0.48l-0.05,0.75
		c0,0.18-0.04,0.28-0.11,0.29c-0.05-0.02-0.09-0.05-0.11-0.11l-0.08-0.16c-0.07-0.38-0.26-0.63-0.56-0.78
		c-0.32-0.14-0.56-0.21-0.72-0.21h-2.01c-0.32,0-0.5,0.13-0.54,0.4v3.92c0,0.05,0.03,0.15,0.08,0.29c0.05,0.11,0.17,0.16,0.35,0.16
		h2.42c0.25,0,0.43-0.02,0.54-0.05l0.24-0.13l0.21-0.19c0.04-0.05,0.1-0.1,0.19-0.13l0.05,0.08l-0.08,0.35
		c-0.11,0.32-0.16,0.72-0.16,1.18v0.48c0,0.23-0.04,0.35-0.11,0.35l-0.05-0.11l-0.08-0.21c-0.05-0.41-0.21-0.69-0.46-0.83
		c-0.23-0.13-0.47-0.19-0.7-0.19h-1.99c-0.25,0-0.38,0.14-0.38,0.43v4.32c0,0.55,0.46,0.83,1.37,0.83l0.24,0.03l0.43,0.03
		c0.27,0,0.51-0.02,0.72-0.05c0.05-0.02,0.13-0.03,0.21-0.03s0.15-0.01,0.19-0.03c0.11-0.04,0.23-0.09,0.38-0.16
		c0.46-0.2,0.75-0.53,0.86-0.99l0.05-0.19c0.04-0.09,0.07-0.13,0.11-0.13s0.07,0.1,0.11,0.29L176.43,121.05z"/>
	<path class="st1" d="M184.85,121.91c-0.93,0.43-1.94,0.64-3.03,0.64c-0.23,0-0.57-0.04-1.02-0.13l-0.43-0.08l-0.32-0.08
		c-0.29-0.07-0.43-0.22-0.43-0.46v-1.91v-0.19c0-0.09,0.03-0.13,0.08-0.13l0.05,0.08l0.11,0.24c0,0.32,0.13,0.74,0.4,1.26
		c0.14,0.25,0.37,0.45,0.67,0.59c0.3,0.16,0.68,0.24,1.13,0.24c0.84,0,1.53-0.16,2.07-0.48c0.55-0.29,0.83-0.96,0.83-2.01
		c0-0.89-0.93-2.01-2.79-3.35c-1.45-1.22-2.17-2.51-2.17-3.89c0-0.48,0.23-0.98,0.7-1.5c0.46-0.52,1.45-0.78,2.95-0.78
		c0.66,0,1.26,0.07,1.8,0.21c0.13,0,0.22,0.04,0.29,0.11l0.16,0.19v1.64c-0.02,0.11-0.06,0.18-0.13,0.21l-0.11-0.11l-0.05-0.16
		c-0.05-0.54-0.31-0.91-0.78-1.13c-0.52-0.2-0.94-0.32-1.26-0.38c-0.97,0-1.63,0.21-1.99,0.64c-0.34,0.41-0.51,0.81-0.51,1.21
		c0,0.88,0.88,1.88,2.63,3.01c0.47,0.2,0.99,0.62,1.58,1.26c0.63,0.64,0.94,1.56,0.94,2.74
		C186.22,120.65,185.76,121.48,184.85,121.91z"/>
	<path class="st1" d="M193.84,122.29l-0.21,0.05l-0.8-0.08l-0.97-0.03l-1.23,0.05l-0.75,0.05c-0.23,0-0.35-0.03-0.35-0.08l0.35-0.11
		c0.2-0.04,0.39-0.13,0.59-0.29c0.23-0.16,0.35-0.46,0.35-0.89v-9.58c0-0.34-0.12-0.59-0.35-0.75l-0.32-0.16l-0.27-0.05
		c-0.27-0.05-0.4-0.11-0.4-0.16l0.13-0.08l0.24-0.03l0.72,0.05l1.21,0.05c0.61,0,1.08-0.03,1.42-0.08h0.19l0.13,0.05l-0.08,0.05
		c-0.07,0.07-0.16,0.13-0.27,0.19c-0.54,0.07-0.81,0.38-0.81,0.91v9.55c0,0.21,0.08,0.45,0.24,0.7c0.13,0.23,0.47,0.4,1.05,0.51
		c0.14,0.02,0.24,0.05,0.3,0.11L193.84,122.29z"/>
	<path class="st1" d="M209.48,116.46l-0.27,0.13c-0.38,0.09-0.63,0.25-0.75,0.48c-0.07,0.23-0.13,0.42-0.16,0.56v3.46
		c0,0.39-0.14,0.68-0.43,0.86c-0.27,0.14-0.51,0.23-0.72,0.27c-0.11,0.04-0.2,0.05-0.27,0.05c-0.16,0.05-0.32,0.09-0.48,0.11
		c-0.23,0.05-0.4,0.08-0.51,0.08h-0.24l-1.18,0.08c-3.22,0-5.34-0.71-6.36-2.15c-1.04-1.41-1.56-2.78-1.56-4.11
		c0-0.73,0.08-1.38,0.24-1.93c0.18-0.55,0.45-1.07,0.81-1.56c0.64-0.89,1.4-1.54,2.25-1.93c0.82-0.38,1.58-0.62,2.28-0.72
		c0.68-0.11,1.14-0.16,1.4-0.16h0.59c1.52,0,2.85,0.13,4,0.4c0.05,0,0.12,0.04,0.19,0.11c0.05,0.05,0.09,0.13,0.11,0.21
		c0,0.09-0.02,0.17-0.05,0.24l-0.08,1.88c-0.02,0.16-0.05,0.24-0.11,0.24c-0.05-0.02-0.09-0.05-0.11-0.11l-0.11-0.19
		c-0.2-0.88-0.67-1.47-1.42-1.77c-0.77-0.32-1.57-0.48-2.39-0.48h-0.46l-0.16,0.03c-0.36,0-0.79,0.04-1.29,0.13
		c-0.27,0.05-0.54,0.13-0.81,0.24c-0.2,0.07-0.5,0.21-0.91,0.43l-0.03,0.03c-0.66,0.38-1.23,0.97-1.69,1.77
		c-0.48,0.82-0.72,1.87-0.72,3.14c0,0.23,0.03,0.5,0.08,0.81c0.02,0.25,0.05,0.45,0.11,0.59c0.02,0.04,0.04,0.13,0.08,0.3
		c0.02,0.05,0.04,0.15,0.08,0.29c0.25,0.82,0.81,1.63,1.69,2.42c0.89,0.8,2.23,1.21,4,1.21h0.38c0.75,0,1.23-0.04,1.45-0.13
		c0.16-0.04,0.32-0.1,0.48-0.19c0.2-0.09,0.33-0.28,0.4-0.56l-0.03-3.19c0-0.5-0.13-0.83-0.4-0.99c-0.27-0.14-0.51-0.22-0.72-0.24
		l-0.29-0.05l-0.11-0.05l0.13-0.08l0.19-0.05l0.75,0.03l1.18,0.03l0.72-0.03l0.94-0.03c0.21,0,0.32,0.03,0.32,0.08L209.48,116.46z"
		/>
	<path class="st1" d="M225.34,110.42c-0.32,0-0.56,0.11-0.72,0.32c-0.18,0.2-0.27,0.5-0.27,0.91v10.52
		c-0.02,0.21-0.07,0.32-0.16,0.32c-0.04,0-0.11-0.04-0.21-0.11l-0.05-0.03l-0.21-0.19l-9.63-10.33v8.8c0,0.47,0.11,0.83,0.32,1.1
		c0.21,0.27,0.53,0.4,0.94,0.4l0.21,0.05l0.13,0.05l-0.03,0.03c-0.02,0-0.04,0.01-0.05,0.03c-0.02,0.02-0.07,0.03-0.16,0.03
		c-0.61-0.05-1.18-0.08-1.72-0.08h-0.64h-0.27c-0.11,0-0.2,0.01-0.27,0.03l-0.56,0.05l-0.19-0.03l-0.08-0.03l0.21-0.13
		c0.18,0,0.41-0.11,0.7-0.32c0.29-0.18,0.43-0.63,0.43-1.34v-10.22l0.03-0.24c0.04-0.07,0.06-0.12,0.08-0.13
		c0.09,0,0.23,0.13,0.43,0.38l9.77,10.25v-8.86c0-0.5-0.17-0.83-0.51-0.99s-0.62-0.24-0.83-0.24l-0.16-0.16
		c-0.02,0-0.03-0.01-0.03-0.03c0-0.02,0.01-0.03,0.03-0.03l0.13-0.03l0.83,0.05l0.94,0.03c0.5,0,1.03-0.03,1.58-0.08
		c0.14,0,0.21,0.03,0.21,0.08C225.52,110.32,225.45,110.37,225.34,110.42z"/>
	<path class="st2" d="M254.13,122.31l-0.29,0.04h-2.17c-0.72,0-1.44-0.15-2.14-0.44c-0.68-0.28-1.21-0.58-1.61-0.88l-0.51-0.4
		l-0.33-0.29l-0.84,0.75c-0.41,0.34-0.97,0.67-1.68,1c-0.72,0.35-1.5,0.53-2.34,0.53c-1.33,0-2.42-0.23-3.27-0.69
		c-0.83-0.44-1.44-0.96-1.86-1.57c-0.4-0.56-0.66-1.09-0.77-1.59c-0.1-0.43-0.16-0.74-0.16-0.93c0-0.78,0.16-1.5,0.49-2.17
		c0.34-0.71,0.71-1.27,1.13-1.7l0.58-0.57c0.09-0.06,0.17-0.12,0.24-0.18c0.12-0.1,0.21-0.18,0.29-0.24l0.38-0.29l0.29-0.18
		c-0.72-0.87-1.08-1.94-1.08-3.2c0-0.83,0.17-1.52,0.51-2.08c0.37-0.54,0.81-0.96,1.33-1.24c0.44-0.22,0.95-0.39,1.52-0.51
		l0.69-0.09l0.71-0.02c0.87,0,1.59,0.12,2.17,0.35c0.12,0.01,0.28,0.1,0.49,0.26c0.21,0.16,0.31,0.42,0.31,0.77l0.04,0.49
		c0,0.28-0.02,0.6-0.07,0.95l-0.11,0.73c-0.06,0.31-0.13,0.46-0.2,0.46c-0.06,0-0.1-0.05-0.11-0.15l-0.07-0.27
		c-0.15-1.13-0.5-1.89-1.06-2.28c-0.54-0.37-1.04-0.55-1.48-0.55c-0.62,0-1.14,0.09-1.57,0.26c-0.43,0.18-0.75,0.44-0.97,0.8
		c-0.41,0.63-0.62,1.33-0.62,2.08c0,0.96,0.43,1.91,1.28,2.85c0.43,0.56,1.22,1.45,2.39,2.67c1.13,1.22,2.47,2.5,4.02,3.84
		c0.28-0.32,0.51-0.71,0.68-1.15c0.01-0.04,0.04-0.11,0.07-0.2c0.04-0.12,0.08-0.24,0.11-0.38c0.07-0.26,0.12-0.46,0.13-0.57
		l0.09-0.66c0-0.53-0.1-0.96-0.31-1.3c-0.18-0.29-0.38-0.51-0.62-0.64c-0.22-0.12-0.4-0.18-0.53-0.2l-0.22-0.09
		c-0.09-0.04-0.13-0.09-0.13-0.13c0-0.06,0.13-0.09,0.38-0.09l0.29-0.02h0.66c0.91,0,1.5,0.06,1.77,0.18c0.06,0,0.14,0.05,0.24,0.15
		c0.1,0.09,0.16,0.25,0.16,0.49l-0.02,0.29c0,0.06-0.02,0.15-0.07,0.27l-0.2,0.77c-0.1,0.38-0.3,0.9-0.6,1.55
		c-0.26,0.59-0.69,1.3-1.28,2.12c0.25,0.22,0.58,0.49,0.99,0.8c0.43,0.31,0.89,0.64,1.39,0.99c1.05,0.72,2.06,1.15,3.05,1.28
		l0.38,0.07c0.15,0.01,0.22,0.04,0.22,0.09L254.13,122.31z M242.37,115.94c-1.25-1.4-2.08-2.35-2.5-2.85
		c-0.32,0.19-0.74,0.6-1.26,1.24c-0.53,0.62-0.79,1.41-0.79,2.39c0,0.32,0.04,0.68,0.13,1.08c0.13,0.59,0.52,1.36,1.17,2.3
		c0.65,0.93,1.71,1.39,3.18,1.39c0.56,0,1.17-0.1,1.83-0.29c0.66-0.19,1.44-0.6,2.32-1.24
		C244.86,118.52,243.49,117.18,242.37,115.94z"/>
	<path class="st1" d="M274.21,122.29l-0.3,0.05l-0.97-0.05l-0.91-0.03h-0.67h-0.27c-0.13,0-0.23,0.01-0.32,0.03l-0.59,0.05
		c-0.11,0-0.18-0.02-0.21-0.05H270c0.02-0.02,0.04-0.04,0.08-0.05c0.05-0.04,0.1-0.06,0.13-0.08c0.52-0.25,0.78-0.77,0.78-1.56
		l0.03-4.72h-7.57l-0.03,4.72c0,0.95,0.44,1.47,1.31,1.56l0.21,0.05l0.11,0.05l-0.13,0.03l-0.21,0.05h-0.32h-0.32
		c-0.07-0.02-0.13-0.03-0.19-0.03l-0.94-0.05h-0.7H262c-0.13,0-0.23,0.01-0.32,0.03l-0.56,0.05l-0.13-0.03l-0.11-0.03l0.08-0.08
		c0.02,0,0.04-0.01,0.05-0.03l0.05-0.03c0.16-0.04,0.34-0.16,0.54-0.38c0.2-0.2,0.3-0.59,0.3-1.18v-8.83c0-0.36-0.07-0.63-0.21-0.83
		c-0.11-0.16-0.29-0.29-0.54-0.38l-0.38-0.13c-0.21-0.04-0.33-0.07-0.35-0.11l0.13-0.08l0.21-0.05l0.91,0.05l1.02,0.03h0.24h0.19
		h0.16h0.13c0.27,0,0.53-0.02,0.78-0.05c0.21,0,0.33,0.03,0.35,0.08c-0.04,0.04-0.06,0.05-0.08,0.05c-0.11,0.07-0.21,0.12-0.3,0.13
		c-0.11,0-0.25,0.09-0.43,0.27c-0.2,0.2-0.3,0.56-0.3,1.1v3.41h7.57v-3.38c0-0.52-0.14-0.89-0.43-1.1
		c-0.23-0.14-0.47-0.26-0.72-0.35c-0.21-0.05-0.34-0.11-0.38-0.16l0.13-0.08h0.24l0.7,0.08l1.13,0.03c0.63,0,1.19-0.04,1.69-0.11
		c0.23,0,0.36,0.03,0.38,0.08l-0.08,0.05l-0.27,0.11c-0.14,0-0.33,0.09-0.56,0.27c-0.23,0.18-0.35,0.57-0.35,1.18l0.03,8.72
		c0,0.88,0.44,1.4,1.32,1.56c0.05,0,0.13,0.02,0.24,0.05l0.16,0.05L274.21,122.29z"/>
	<path class="st1" d="M288.27,122.29l-0.19,0.05l-3.33-0.03l-0.13-0.05l-0.08-0.03v-0.05l0.05-0.03l0.21-0.13
		c0.16,0,0.24-0.07,0.24-0.21c0-0.21-0.08-0.47-0.24-0.75l-1.31-3.19c-0.07-0.18-0.21-0.27-0.43-0.27h-3.35
		c-0.25,0-0.39,0.1-0.43,0.3l-1.15,3.17l-0.03,0.13l-0.03,0.24c0,0.34,0.21,0.58,0.64,0.72l0.19,0.08l0.08,0.05l-0.03,0.03
		l-0.19,0.03l-3.35-0.03l-0.11-0.03l-0.08-0.03l0.05-0.03l0.19-0.08c0.55-0.09,0.96-0.27,1.21-0.54c0.25-0.3,0.4-0.54,0.46-0.7
		l4.21-10.65l0.08-0.19c0.02-0.05,0.08-0.09,0.19-0.11c0.09,0,0.17,0.12,0.24,0.35l4.43,10.46c0.07,0.23,0.24,0.51,0.51,0.83
		c0.3,0.36,0.71,0.54,1.23,0.54l0.21,0.05l0.13,0.05L288.27,122.29z M283.04,116.79l-1.53-4.11c-0.07-0.18-0.13-0.28-0.19-0.3
		l-0.11,0.11l-0.05,0.19l-1.45,4.05l-0.05,0.13c0,0.09,0.07,0.13,0.21,0.13h2.98c0.13,0,0.2-0.04,0.21-0.11L283.04,116.79z"/>
	<path class="st1" d="M302.71,110.42c-0.32,0-0.56,0.11-0.72,0.32c-0.18,0.2-0.27,0.5-0.27,0.91v10.52
		c-0.02,0.21-0.07,0.32-0.16,0.32c-0.04,0-0.11-0.04-0.21-0.11l-0.05-0.03l-0.21-0.19l-9.63-10.33v8.8c0,0.47,0.11,0.83,0.32,1.1
		c0.21,0.27,0.53,0.4,0.94,0.4l0.21,0.05l0.13,0.05l-0.03,0.03c-0.02,0-0.04,0.01-0.05,0.03c-0.02,0.02-0.07,0.03-0.16,0.03
		c-0.61-0.05-1.18-0.08-1.72-0.08h-0.64h-0.27c-0.11,0-0.2,0.01-0.27,0.03l-0.56,0.05l-0.19-0.03l-0.08-0.03l0.21-0.13
		c0.18,0,0.41-0.11,0.7-0.32c0.29-0.18,0.43-0.63,0.43-1.34v-10.22l0.03-0.24c0.04-0.07,0.06-0.12,0.08-0.13
		c0.09,0,0.23,0.13,0.43,0.38l9.77,10.25v-8.86c0-0.5-0.17-0.83-0.51-0.99s-0.62-0.24-0.83-0.24l-0.16-0.16
		c-0.02,0-0.03-0.01-0.03-0.03c0-0.02,0.01-0.03,0.03-0.03l0.13-0.03l0.83,0.05l0.94,0.03c0.5,0,1.03-0.03,1.58-0.08
		c0.14,0,0.21,0.03,0.21,0.08C302.89,110.32,302.82,110.37,302.71,110.42z"/>
	<path class="st1" d="M318.87,118.82c-0.3,0.64-0.7,1.18-1.18,1.61c-0.95,0.84-2,1.4-3.14,1.66c-0.54,0.13-1.08,0.21-1.64,0.27
		c-0.11,0.02-0.23,0.04-0.38,0.05c-0.14,0-0.27,0.01-0.38,0.03c-0.16,0.02-0.42,0.03-0.78,0.03l-1.23-0.05l-2.76-0.08h-0.81
		c-0.21,0-0.34-0.03-0.38-0.08l0.11-0.05l0.24-0.05c0.16,0,0.36-0.08,0.59-0.24c0.21-0.14,0.32-0.47,0.32-0.99l-0.03-0.32v-9.07
		c0-0.73-0.37-1.1-1.1-1.1c-0.23-0.04-0.36-0.07-0.38-0.11l0.13-0.08l0.21-0.05l0.86,0.03l1.37,0.03h0.3h0.24h0.21h0.16h0.16h0.35
		h0.24c0.11-0.04,0.17-0.05,0.19-0.05l0.27-0.03h0.78c0.64,0,1.21,0.04,1.69,0.11c0.59,0.09,1.16,0.21,1.72,0.35
		c1.16,0.3,2.19,0.94,3.09,1.91c0.89,1,1.34,2.38,1.34,4.13C319.27,117.47,319.13,118.2,318.87,118.82z M316.45,112.81
		c-0.82-0.88-1.76-1.45-2.82-1.72c-1.06-0.25-2-0.38-2.84-0.38h-0.35l-0.13,0.03c-0.91,0-1.37,0.28-1.37,0.83l0.08,9.12
		c0,0.25,0.13,0.53,0.4,0.83c0.3,0.3,0.88,0.46,1.72,0.46h0.35c0.82,0,1.69-0.12,2.6-0.35c0.89-0.23,1.73-0.75,2.5-1.56
		c0.75-0.79,1.13-1.94,1.13-3.46C317.71,114.98,317.29,113.71,316.45,112.81z"/>
	<path class="st1" d="M338.29,122.37l-0.27-0.05l-1.1-0.03l-0.94-0.05h-0.48h-0.21c-0.11,0-0.2,0.01-0.27,0.03
		c-0.32,0-0.5,0.01-0.54,0.03c-0.14,0-0.23-0.02-0.27-0.05l0.05-0.03l0.29-0.13c0.11,0,0.22-0.06,0.35-0.19
		c0.14-0.14,0.21-0.37,0.21-0.67l-0.05-0.43l-0.78-7.73l-4.64,9.02c-0.11,0.16-0.2,0.24-0.27,0.24c-0.04,0-0.1-0.03-0.19-0.08
		l-0.11-0.16l-4.67-8.86l-0.7,7.65l0.03,0.48c0.04,0.14,0.09,0.27,0.16,0.38c0.13,0.21,0.37,0.36,0.72,0.43
		c0.14,0.04,0.21,0.08,0.21,0.13l-0.19,0.05c-0.5-0.05-0.99-0.08-1.48-0.08h-0.56c-0.25,0-0.4,0.01-0.46,0.03l-0.48,0.05l-0.19-0.03
		l-0.13-0.03l0.32-0.13c0.14,0,0.31-0.09,0.51-0.27c0.21-0.16,0.38-0.51,0.48-1.05l1.23-10.63l0.03-0.21
		c0.02-0.05,0.06-0.1,0.13-0.13c0.09,0,0.19,0.12,0.29,0.35l5.37,10.09l5.13-10.12c0.09-0.25,0.18-0.38,0.27-0.38
		c0.04,0,0.08,0.07,0.13,0.21l0.05,0.32l1.21,10.36c0,0.23,0.1,0.53,0.29,0.89c0.07,0.14,0.22,0.29,0.46,0.43
		c0.23,0.09,0.49,0.13,0.78,0.13l0.19,0.08l0.11,0.11L338.29,122.37z"/>
	<path class="st1" d="M351.07,122.29l-0.19,0.05l-3.33-0.03l-0.13-0.05l-0.08-0.03v-0.05l0.05-0.03l0.21-0.13
		c0.16,0,0.24-0.07,0.24-0.21c0-0.21-0.08-0.47-0.24-0.75l-1.31-3.19c-0.07-0.18-0.21-0.27-0.43-0.27h-3.35
		c-0.25,0-0.39,0.1-0.43,0.3l-1.15,3.17l-0.03,0.13l-0.03,0.24c0,0.34,0.21,0.58,0.64,0.72l0.19,0.08l0.08,0.05l-0.03,0.03
		l-0.19,0.03l-3.35-0.03l-0.11-0.03l-0.08-0.03l0.05-0.03l0.19-0.08c0.55-0.09,0.96-0.27,1.21-0.54c0.25-0.3,0.4-0.54,0.46-0.7
		l4.21-10.65l0.08-0.19c0.02-0.05,0.08-0.09,0.19-0.11c0.09,0,0.17,0.12,0.24,0.35l4.43,10.46c0.07,0.23,0.24,0.51,0.51,0.83
		c0.3,0.36,0.71,0.54,1.23,0.54l0.21,0.05l0.13,0.05L351.07,122.29z M345.83,116.79l-1.53-4.11c-0.07-0.18-0.13-0.28-0.19-0.3
		l-0.11,0.11l-0.05,0.19l-1.45,4.05l-0.05,0.13c0,0.09,0.07,0.13,0.21,0.13h2.98c0.13,0,0.2-0.04,0.21-0.11L345.83,116.79z"/>
	<path class="st1" d="M365.13,118.82c-0.3,0.64-0.7,1.18-1.18,1.61c-0.95,0.84-2,1.4-3.14,1.66c-0.54,0.13-1.08,0.21-1.64,0.27
		c-0.11,0.02-0.23,0.04-0.38,0.05c-0.14,0-0.27,0.01-0.38,0.03c-0.16,0.02-0.42,0.03-0.78,0.03l-1.23-0.05l-2.76-0.08h-0.81
		c-0.21,0-0.34-0.03-0.38-0.08l0.11-0.05l0.24-0.05c0.16,0,0.36-0.08,0.59-0.24c0.21-0.14,0.32-0.47,0.32-0.99l-0.03-0.32v-9.07
		c0-0.73-0.37-1.1-1.1-1.1c-0.23-0.04-0.36-0.07-0.38-0.11l0.13-0.08l0.21-0.05l0.86,0.03l1.37,0.03h0.3h0.24h0.21h0.16h0.16h0.35
		h0.24c0.11-0.04,0.17-0.05,0.19-0.05l0.27-0.03h0.78c0.64,0,1.21,0.04,1.69,0.11c0.59,0.09,1.16,0.21,1.72,0.35
		c1.16,0.3,2.19,0.94,3.09,1.91c0.89,1,1.34,2.38,1.34,4.13C365.53,117.47,365.4,118.2,365.13,118.82z M362.71,112.81
		c-0.82-0.88-1.76-1.45-2.82-1.72c-1.06-0.25-2-0.38-2.84-0.38h-0.35l-0.13,0.03c-0.91,0-1.37,0.28-1.37,0.83l0.08,9.12
		c0,0.25,0.13,0.53,0.4,0.83c0.3,0.3,0.88,0.46,1.72,0.46h0.35c0.82,0,1.69-0.12,2.6-0.35c0.89-0.23,1.73-0.75,2.5-1.56
		c0.75-0.79,1.13-1.94,1.13-3.46C363.97,114.98,363.55,113.71,362.71,112.81z"/>
	<path class="st1" d="M375.94,121.05c0,0.16-0.04,0.4-0.13,0.72c0,0.38-0.26,0.56-0.78,0.56h-6.17c-0.09,0-0.15-0.02-0.19-0.05
		c0-0.05,0.07-0.1,0.21-0.13c0.13,0,0.28-0.05,0.46-0.16c0.2-0.14,0.29-0.35,0.29-0.62l0.05-10.17c0-0.29-0.12-0.48-0.35-0.59
		l-0.11-0.05c-0.27-0.07-0.45-0.12-0.54-0.13c-0.23-0.07-0.35-0.13-0.35-0.16l0.11-0.08h0.21h6.44l0.16-0.08l0.24-0.05
		c0.05,0,0.1,0.04,0.13,0.13c0,0.04-0.04,0.13-0.11,0.29c0,0.02-0.01,0.04-0.03,0.08l-0.11,0.48l-0.05,0.75
		c0,0.18-0.04,0.28-0.11,0.29c-0.05-0.02-0.09-0.05-0.11-0.11l-0.08-0.16c-0.07-0.38-0.26-0.63-0.56-0.78
		c-0.32-0.14-0.56-0.21-0.72-0.21h-2.01c-0.32,0-0.5,0.13-0.54,0.4v3.92c0,0.05,0.03,0.15,0.08,0.29c0.05,0.11,0.17,0.16,0.35,0.16
		h2.42c0.25,0,0.43-0.02,0.54-0.05l0.24-0.13l0.21-0.19c0.04-0.05,0.1-0.1,0.19-0.13l0.05,0.08l-0.08,0.35
		c-0.11,0.32-0.16,0.72-0.16,1.18v0.48c0,0.23-0.04,0.35-0.11,0.35l-0.05-0.11l-0.08-0.21c-0.05-0.41-0.21-0.69-0.46-0.83
		c-0.23-0.13-0.47-0.19-0.7-0.19h-1.99c-0.25,0-0.38,0.14-0.38,0.43v4.32c0,0.55,0.46,0.83,1.37,0.83l0.24,0.03l0.43,0.03
		c0.27,0,0.51-0.02,0.72-0.05c0.05-0.02,0.13-0.03,0.21-0.03s0.15-0.01,0.19-0.03c0.11-0.04,0.23-0.09,0.38-0.16
		c0.46-0.2,0.75-0.53,0.86-0.99l0.05-0.19c0.04-0.09,0.07-0.13,0.11-0.13s0.07,0.1,0.11,0.29L375.94,121.05z"/>
</g>
<g>
	<path class="st3" d="M10.32,61.07c0.26,0.22,0.54,0.41,0.83,0.58c0.19-0.29,0.39-0.58,0.62-0.85c1.28-1.54,3.04-2.54,4.99-2.9
		c0-0.8,0.11-1.58,0.33-2.33c-0.79-0.33-1.54-0.78-2.22-1.34c-0.24-0.2-0.47-0.42-0.69-0.65c-0.55,0.17-1.11,0.29-1.69,0.35
		c-1.36,0.14-2.69-0.05-3.93-0.53C7.39,56,8.03,59.16,10.32,61.07z"/>
	<path class="st3" d="M55.99,66.86c0.7,1.12,1.14,2.39,1.26,3.75c0.03,0.35,0.03,0.7,0.02,1.05c0.19,0.34,0.35,0.69,0.49,1.05
		c0.99-0.39,1.9-1.02,2.63-1.89c1.35-1.62,1.78-3.7,1.36-5.62c-1.22,0.91-2.66,1.48-4.2,1.64C57.03,66.9,56.51,66.9,55.99,66.86z"/>
	<path class="st3" d="M60.95,53.45c-1.34,1.24-3.03,2.01-4.87,2.2c-1.04,0.11-2.07,0.01-3.04-0.25c0,0.01-0.01,0.01-0.01,0.02
		c0.71,0.66,1.32,1.43,1.78,2.31c1.05,2.01,1.26,4.31,0.58,6.47c-0.06,0.19-0.13,0.37-0.2,0.56c0.72,0.17,1.45,0.22,2.18,0.15
		c1.64-0.17,3.21-0.95,4.35-2.31C64.01,59.85,63.66,55.77,60.95,53.45z"/>
	<path class="st3" d="M54.87,79.96c1.15-1.38,1.64-3.1,1.5-4.76c-0.29,0.57-0.63,1.11-1.05,1.6c-1.08,1.3-2.5,2.22-4.09,2.69
		c0.08,0.35,0.14,0.71,0.17,1.07c0.05,0.52,0.04,1.04-0.01,1.55C52.71,81.8,53.94,81.08,54.87,79.96z"/>
	<path class="st3" d="M33.78,86.45c0.7-0.07,1.38-0.26,2.02-0.55c-0.42-0.65-0.75-1.36-0.97-2.11c-1.51-0.08-2.95-0.55-4.21-1.39
		c-0.88,0.58-1.86,1-2.91,1.22c0.33,0.49,0.74,0.95,1.21,1.35C30.33,86.14,32.08,86.63,33.78,86.45z"/>
	<path class="st3" d="M26.58,81.83c0.86-0.09,1.7-0.35,2.47-0.77c-1.26-1.37-2.04-3.1-2.21-4.98c-0.03-0.39-0.03-0.77-0.02-1.15
		c-1.43-0.16-2.78-0.69-3.96-1.54c-1.03,0.66-2.2,1.09-3.44,1.26c-0.22,2.09,0.58,4.25,2.31,5.69C23.14,81.52,24.89,82,26.58,81.83z
		"/>
	<path class="st3" d="M18.94,72.75c0.84-0.09,1.67-0.34,2.43-0.75c-1.84-2.16-2.45-5.06-1.73-7.72c-1.34-1.18-2.26-2.72-2.66-4.44
		c-1.4,0.28-2.73,1.03-3.72,2.21c-2.32,2.77-1.95,6.89,0.82,9.21C15.49,72.44,17.24,72.92,18.94,72.75z"/>
	<path class="st3" d="M58.44,41.53c-0.07,0.09-0.13,0.18-0.2,0.26c-1.43,1.71-3.43,2.77-5.65,3c-0.33,0.03-0.65,0.04-0.97,0.04
		c0.53,0.5,1.01,1.06,1.4,1.7c1.19,1.93,1.55,4.21,1.03,6.41c-0.05,0.22-0.12,0.44-0.19,0.66c0.67,0.14,1.35,0.18,2.02,0.11
		c1.64-0.17,3.21-0.95,4.35-2.31c2.32-2.77,1.95-6.89-0.82-9.21C59.1,41.94,58.78,41.72,58.44,41.53z"/>
	<path class="st1" d="M33.46,30.73c-1.4,0.14-2.76,0.77-3.81,1.86c0,0,0,0,0,0c0.06,0.05,0.12,0.1,0.18,0.15
		c1.91,1.83,2.72,4.38,2.42,6.82c1.2-0.03,2.38,0.19,3.47,0.64c0.31-1.12,0.85-2.17,1.61-3.09c0.05-0.05,0.1-0.1,0.14-0.15
		c-0.05-0.28-0.09-0.55-0.12-0.84c-0.12-1.39,0.11-2.75,0.66-3.99C36.71,31.04,35.06,30.57,33.46,30.73z"/>
	<path class="st1" d="M21.2,36.51c1.12,0.94,1.92,2.11,2.41,3.39c0.76,0.32,1.48,0.76,2.13,1.31c0.29,0.24,0.54,0.5,0.79,0.76
		c0.15-0.15,0.3-0.3,0.47-0.43c0.95-0.8,2.06-1.37,3.24-1.69c0.42-2-0.17-4.17-1.76-5.69c-1.35-1.29-3.14-1.85-4.87-1.67
		c-1.4,0.14-2.76,0.77-3.81,1.86c-0.26,0.28-0.49,0.57-0.7,0.88C19.86,35.54,20.56,35.97,21.2,36.51z"/>
	<path class="st1" d="M15.3,36.58c-0.71,0.07-1.4,0.27-2.06,0.58c1.39,0.27,2.7,0.89,3.81,1.82c0.24,0.2,0.47,0.42,0.69,0.65
		c0.55-0.17,1.11-0.29,1.7-0.35l0,0c0.56-0.06,1.11-0.06,1.66-0.01c-0.32-0.46-0.69-0.89-1.14-1.27
		C18.6,36.87,16.92,36.41,15.3,36.58z"/>
	<path class="st3" d="M12.27,51.99c0.22-0.02,0.43-0.06,0.64-0.1c-0.59-1.04-0.96-2.2-1.07-3.42c-0.2-2.26,0.49-4.46,1.94-6.2
		c0.59-0.71,1.29-1.3,2.05-1.77c-0.01-0.01-0.02-0.02-0.03-0.03c-1.41-1.18-3.16-1.66-4.86-1.49c-1.64,0.17-3.21,0.95-4.35,2.31
		c-2.32,2.77-1.95,6.89,0.82,9.21C8.83,51.68,10.58,52.16,12.27,51.99z"/>
	<path class="st1" d="M40.71,31.47c-0.97,1.16-1.43,2.56-1.43,3.96c1.06-0.66,2.25-1.08,3.53-1.21l0,0
		c0.25-0.03,0.49-0.04,0.73-0.04c0.31-1.19,0.88-2.31,1.69-3.28c0.47-0.56,1.01-1.05,1.59-1.46c-0.67-0.16-1.35-0.21-2.03-0.14
		C43.25,29.46,41.77,30.19,40.71,31.47z"/>
	<path class="st3" d="M46.72,32.15c-0.57,0.68-0.97,1.44-1.22,2.24c1.24,0.29,2.4,0.85,3.41,1.69c1.68,1.41,2.72,3.39,2.91,5.57
		c0.04,0.41,0.03,0.82,0.01,1.22c0.19,0,0.38-0.01,0.57-0.03c1.64-0.17,3.21-0.95,4.35-2.31c2.32-2.77,1.95-6.89-0.82-9.21
		c-1.41-1.18-3.16-1.66-4.86-1.49C49.44,30.01,47.86,30.79,46.72,32.15z"/>
	<path class="st3" d="M49.3,79.82c-2.16,0.13-4.24-0.55-5.91-1.93c-0.33,1.04-0.86,2.02-1.58,2.88c-1.28,1.53-3.02,2.54-4.96,2.9
		c0.39,1.01,1.02,1.93,1.91,2.67c1.41,1.18,3.16,1.66,4.86,1.49c1.64-0.17,3.21-0.95,4.35-2.31C49.33,83.87,49.75,81.76,49.3,79.82z
		"/>
	<path class="st3" d="M48.14,70.11c-0.61,0.06-1.23,0.05-1.84-0.02c-0.03,0.06-0.05,0.11-0.08,0.17c-0.67,1.19-1.61,2.18-2.73,2.91
		c0.12,0.46,0.21,0.92,0.25,1.4c0.03,0.32,0.03,0.64,0.03,0.96c0.25,0.3,0.53,0.59,0.84,0.85c1.41,1.18,3.16,1.66,4.86,1.49
		c1.64-0.17,3.21-0.95,4.35-2.31c2.08-2.48,1.99-6.05-0.05-8.43C52.38,68.78,50.38,69.88,48.14,70.11z"/>
	<path class="st3" d="M41.7,74.06c-0.64,0.23-1.32,0.39-2.01,0.46c-1.75,0.18-3.49-0.19-5.03-1.06c-0.39-0.22-0.75-0.47-1.09-0.74
		c-1.32,1.22-2.98,2-4.79,2.2c-0.12,2,0.67,4.03,2.32,5.41c1.41,1.18,3.16,1.66,4.86,1.49c1.64-0.17,3.21-0.95,4.35-2.31
		C41.62,77.94,42.07,75.93,41.7,74.06z"/>
	<path class="st3" d="M44.32,69.61c-1.97-0.73-3.58-2.14-4.56-4.01c-0.2-0.38-0.36-0.77-0.49-1.16c-0.54,0.17-1.1,0.29-1.67,0.35
		c-0.5,0.05-0.99,0.04-1.48,0c0.45,2.18,0.04,4.52-1.27,6.46c0.24,0.19,0.5,0.37,0.77,0.52c1.22,0.69,2.58,0.95,3.88,0.81
		C41.42,72.39,43.22,71.34,44.32,69.61z"/>
	<path class="st3" d="M32.83,70.69c1.53-1.83,1.88-4.24,1.15-6.34c-0.77-0.26-1.49-0.64-2.15-1.11c-0.03,0.04-0.06,0.08-0.09,0.11
		c-1.43,1.71-3.43,2.77-5.65,3c-1.66,0.17-3.28-0.15-4.73-0.89c-0.35,2.2,0.42,4.52,2.26,6.05c1.41,1.18,3.16,1.66,4.86,1.49
		C30.11,72.84,31.69,72.06,32.83,70.69z"/>
	<path class="st3" d="M46.66,59.41c-0.68,0.07-1.35,0.04-2.01-0.06c-0.66,1.74-1.86,3.22-3.48,4.21c-0.04,0.02-0.08,0.04-0.12,0.07
		c0.62,1.96,2.16,3.6,4.27,4.27c0.87,0.27,1.76,0.35,2.61,0.27c2.52-0.26,4.77-1.98,5.58-4.55c0.77-2.45,0.02-5-1.71-6.66
		c-0.47,0.47-0.98,0.89-1.56,1.24C49.15,58.87,47.94,59.28,46.66,59.41z"/>
	<path class="st3" d="M21.04,62.93c1.41,1.18,3.16,1.66,4.86,1.49c1.64-0.17,3.21-0.95,4.35-2.31c0.05-0.06,0.08-0.11,0.13-0.17
		c-0.32-0.36-0.61-0.74-0.87-1.15c-1-1.62-1.41-3.49-1.2-5.36c-0.77-0.43-1.46-0.99-2.07-1.65c-1.37,1.34-3.14,2.18-5.07,2.38
		c-0.75,0.08-1.48,0.05-2.2-0.07C18.25,58.51,18.98,61.22,21.04,62.93z"/>
	<path class="st3" d="M37.4,62.85c0.95-0.1,1.89-0.4,2.76-0.94c1.21-0.75,2.09-1.82,2.6-3.04c-1.7-0.66-3.2-1.84-4.18-3.45
		c-0.2-0.33-0.37-0.67-0.52-1.01c-0.05,0.04-0.09,0.09-0.14,0.13c-1.31,1.1-2.89,1.77-4.59,1.94c-1.06,0.11-2.12,0.01-3.12-0.26
		c-0.03,1.21,0.28,2.45,0.96,3.56C32.52,61.98,34.98,63.09,37.4,62.85z"/>
	<path class="st3" d="M16.11,52.73c1.41,1.18,3.16,1.66,4.86,1.49c1.52-0.16,2.98-0.85,4.1-2.03c-1.53-2.73-1.42-6.08,0.23-8.69
		c-0.24-0.28-0.5-0.55-0.79-0.8c-1.41-1.18-3.16-1.66-4.86-1.49c-1.64,0.17-3.21,0.95-4.35,2.31
		C12.97,46.29,13.34,50.42,16.11,52.73z"/>
	<path class="st3" d="M50.66,46.62c-0.22,0.36-0.45,0.7-0.73,1.03c-1.38,1.65-3.32,2.68-5.47,2.9c-1.31,0.13-2.6-0.05-3.78-0.51
		c-0.23,0.97-0.63,1.88-1.18,2.7c0.16,0.57,0.4,1.13,0.72,1.65c1.36,2.21,3.82,3.32,6.23,3.08c0.95-0.1,1.89-0.4,2.76-0.94
		c3.07-1.89,4.03-5.92,2.14-8.99C51.16,47.21,50.92,46.91,50.66,46.62z"/>
	<path class="st3" d="M37.49,41.21c0.53,0.39,1.03,0.85,1.46,1.37c1.3,1.55,1.99,3.46,1.98,5.45c1.05,0.51,2.21,0.7,3.34,0.59
		c1.57-0.16,3.08-0.91,4.17-2.21c2.22-2.65,1.87-6.6-0.79-8.82c-1.35-1.13-3.03-1.59-4.65-1.43c-1.57,0.16-3.08,0.91-4.17,2.21
		C38.13,39.22,37.68,40.2,37.49,41.21z"/>
	<path class="st3" d="M27.45,52.24c1.45,1.72,3.59,2.51,5.68,2.3c1.26-0.13,2.49-0.62,3.53-1.5c2.76-2.32,3.12-6.44,0.8-9.21
		c-1.45-1.72-3.59-2.51-5.68-2.3c-1.26,0.13-2.49,0.62-3.53,1.5C25.49,45.35,25.13,49.47,27.45,52.24z"/>
	<path class="st4" d="M17.52,18.09c5.22,2.34,8.05,7.7,8.83,9.35c0.58-1.81,1.58-6.73-3.14-10.29c-4.27-3.22-10.51-3.92-10.51-3.92
		s-0.33,8.83,3.38,12.26c3.03,2.8,7.77,2.8,9.42,2.71C23.62,22.76,17.52,18.09,17.52,18.09z"/>
	<path class="st5" d="M41.64,3.59c0,0-7.63,3-11.92,8.52c-4.95,6.37-1.52,12.49-0.28,14.3c0.28-2.77,1.49-10.12,6.48-14.88
		c0,0-5.05,7.9-5.39,15.3c2.05-0.42,8.13-2.03,11.02-6.63C45.07,14.6,41.64,3.59,41.64,3.59z"/>
</g>
</svg>
